<?xml version="1.0" encoding="utf-8"?>
<!-- Generator: Adobe Illustrator 16.0.3, SVG Export Plug-In . SVG Version: 6.00 Build 0)  -->
<!DOCTYPE svg PUBLIC "-//W3C//DTD SVG 1.1//EN" "http://www.w3.org/Graphics/SVG/1.1/DTD/svg11.dtd">
<svg version="1.1" id="Folder_3_" xmlns="http://www.w3.org/2000/svg" xmlns:xlink="http://www.w3.org/1999/xlink" x="0px" y="0px"
	 width="192px" height="192px" viewBox="0 0 192 192" enable-background="new 0 0 192 192" xml:space="preserve">
<g id="short_dark" opacity="0.2">
	
		<image overflow="visible" enable-background="new    " width="1038" height="1038" xlink:href="4DC0C340.png"  transform="matrix(0.2391 0 0 0.2391 -28 -24.9993)">
	</image>
</g>
<circle id="short_dark_1_" opacity="0.2" enable-background="new    " cx="96" cy="98" r="88"/>
<path fill="#29B6F6" d="M172.195,139.993c-16.996,29.438-48.422,45.339-80.175,43.919l27.376-47.429L96,136.493
	c14.998,0,28.096-8.16,35.094-20.278c3.439-5.949,5.391-12.857,5.399-20.219c0-7.688-2.142-14.879-5.858-20.999l-0.041-0.06
	c-0.08-0.13-0.158-0.26-0.25-0.392c-0.357-0.59-0.738-1.17-1.14-1.729c-0.399-0.57-0.81-1.13-1.229-1.67
	c-0.311-0.4-0.619-0.79-0.938-1.169c-0.261-0.312-0.529-0.62-0.8-0.92c-0.141-0.17-0.289-0.33-0.449-0.49
	c-0.32-0.36-0.66-0.72-1.01-1.061c-0.271-0.289-0.551-0.569-0.84-0.829c-0.23-0.23-0.472-0.45-0.711-0.66
	c-1.25-1.15-2.568-2.2-3.938-3.16c-0.358-0.26-0.729-0.5-1.101-0.74c-0.359-0.24-0.729-0.479-1.102-0.7
	c-0.029-0.02-0.05-0.04-0.09-0.06c-0.35-0.21-0.689-0.41-1.051-0.61c-0.399-0.229-0.811-0.45-1.219-0.66
	c-1.91-1-3.899-1.84-5.938-2.52c-0.41-0.15-0.819-0.28-1.24-0.39c-0.409-0.12-0.829-0.24-1.25-0.352
	c-1.25-0.34-2.528-0.609-3.827-0.81c-0.32-0.062-0.642-0.102-0.972-0.142c-0.45-0.068-0.899-0.13-1.358-0.17
	c-0.342-0.04-0.682-0.068-1.021-0.09c-0.35-0.03-0.689-0.06-1.039-0.07c-0.35-0.02-0.689-0.039-1.04-0.039
	c-0.14-0.011-0.28-0.011-0.42-0.011h77.507C187.443,81.246,187.764,113.024,172.195,139.993z"/>
<path fill="#039BE5" d="M49.24,96.011l11.693-20.263c-7.499,12.99-6.989,28.411,0.01,40.535c3.434,5.949,8.438,11.097,14.813,14.781
	c19.364,11.185,44.131,4.55,55.311-14.825l-35.074,60.759l-3.989,6.91c-28.955-1.341-56.633-16.948-72.2-43.916
	C2.81,110.557,4.753,75.386,21.866,48.59L49.24,96.011z"/>
<path fill="#0277BD" d="M119.366,55.488l0.01,0.01H96.62c-0.221-0.01-0.44-0.01-0.661-0.01c-0.91,0-1.81,0.03-2.72,0.09
	c-5.969,0.41-11.948,2.15-17.487,5.351c-19.367,11.179-26.005,35.946-14.817,55.315L25.862,55.488l-3.989-6.91
	C37.51,24.169,64.865,8,96,8c17.417,0,33.665,5.061,47.322,13.799c12.968,8.302,23.615,19.899,30.755,33.619
	c0.021,0.021,0.03,0.052,0.04,0.07H119.366z"/>
<path opacity="0.2" fill="#212121" enable-background="new    " d="M119.37,55.49l0.01,0.01H96.62c-0.22-0.01-0.44-0.01-0.66-0.01
	c-0.91,0-1.81,0.03-2.72,0.09c-5.97,0.41-11.95,2.15-17.49,5.351c-12.83,7.409-20.08,20.79-20.24,34.6
	c-0.18-14.17,7.1-28.01,20.24-35.6c5.54-3.2,11.52-4.94,17.49-5.351c0.91-0.06,1.81-0.09,2.72-0.09c0.22,0,0.44,0,0.66,0.01h22.76
	l-0.01-0.01h54.22c0.16,0.31,0.33,0.62,0.49,0.93c0.02,0.021,0.029,0.051,0.04,0.07H119.37z"/>
<path opacity="0.2" fill="#212121" enable-background="new    " d="M49.232,96.015l0.003-0.014l11.38,19.71
	c0.102,0.195,0.212,0.387,0.322,0.577c0.455,0.788,0.931,1.552,1.438,2.311c3.34,4.966,7.837,9.273,13.378,12.473
	c12.832,7.406,28.045,6.994,40.084,0.229c-12.183,7.24-27.807,7.855-40.95,0.271c-5.542-3.198-10.038-7.507-13.378-12.473
	c-0.507-0.759-0.983-1.521-1.438-2.311c-0.11-0.19-0.22-0.382-0.321-0.577l-11.38-19.71l-0.004,0.015L21.256,49.56
	c0.188-0.293,0.372-0.597,0.56-0.89c0.008-0.026,0.029-0.052,0.041-0.069L49.232,96.015z"/>
<path opacity="0.2" fill="#212121" enable-background="new    " d="M119.396,136.494l-0.014,0.004l11.381-19.711
	c0.117-0.186,0.229-0.376,0.338-0.566c0.455-0.788,0.879-1.582,1.282-2.399c2.63-5.376,4.112-11.425,4.112-17.822
	c-0.002-14.815-7.967-27.785-19.846-34.829c12.361,6.931,20.707,20.154,20.711,35.328c0,6.398-1.481,12.447-4.112,17.823
	c-0.401,0.817-0.826,1.611-1.281,2.399c-0.11,0.19-0.221,0.382-0.339,0.566l-11.38,19.711l0.015-0.004L93.153,183.95
	c-0.349-0.017-0.702-0.023-1.05-0.041c-0.027,0.007-0.059,0.001-0.081,0L119.396,136.494z"/>
<path opacity="0.2" fill="#006064" enable-background="new    " d="M174.07,55.49L98.63,75.7l-5.39-20.12
	c0.91-0.06,1.81-0.09,2.72-0.09c0.22,0,0.44,0,0.66,0.01h22.76l-0.01-0.01H174.07z"/>
<path opacity="0.2" fill="#006064" enable-background="new    " d="M92.047,183.865l20.219-75.438l20.118,5.393
	c-0.403,0.818-0.827,1.612-1.282,2.4c-0.108,0.188-0.22,0.381-0.338,0.564l-11.381,19.711l0.014-0.003L92.047,183.865z"/>
<path opacity="0.2" fill="#006064" enable-background="new    " d="M21.882,48.644l55.223,55.228L62.375,118.6
	c-0.507-0.76-0.982-1.521-1.438-2.312c-0.11-0.189-0.22-0.382-0.322-0.577l-11.38-19.71l-0.003,0.015L21.882,48.644z"/>
<circle opacity="0.2" fill="#006064" enable-background="new    " cx="96" cy="97" r="40.5"/>
<circle fill="#F5F5F5" cx="96" cy="96" r="40.5"/>
<path fill="#FFFFFF" d="M96,55.5c-22.37,0-40.5,18.13-40.5,40.5s18.13,40.5,40.5,40.5s40.5-18.13,40.5-40.5S118.37,55.5,96,55.5z
	 M96,135.5c-21.82,0-39.5-17.68-39.5-39.5c0-21.81,17.68-39.5,39.5-39.5c21.811,0,39.5,17.69,39.5,39.5
	C135.5,117.82,117.811,135.5,96,135.5z"/>
<circle fill="#26C6DA" cx="96" cy="96" r="32"/>
<path opacity="0.2" fill="#E0F7FA" enable-background="new    " d="M96,64c-17.67,0-32,14.33-32,32s14.33,32,32,32s32-14.33,32-32
	S113.67,64,96,64z M96,127c-17.12,0-31-13.88-31-31s13.88-31,31-31s31,13.88,31,31S113.12,127,96,127z"/>
<g id="Tints">
	<path id="bottom" opacity="0.4" fill="#006064" enable-background="new    " d="M183.891,100.53C181.529,147.019,143.08,184,96,184
		S10.47,147.02,8.11,100.53C10.5,146.469,48.94,183,96,183C143.061,183,181.5,146.469,183.891,100.53z"/>
	<path id="top" opacity="0.4" fill="#E0F7FA" enable-background="new    " d="M8.11,91.47C10.471,44.98,48.92,8,96,8
		s85.529,36.98,87.891,83.473C181.5,45.53,143.061,9,96,9C48.94,9,10.5,45.53,8.11,91.47z"/>
</g>
</svg>
